# xmcd CD database file
#
# Track frame offsets:
#	150
#	13890
#	38690
#	49053
#	69590
#	82730
#	101553
#	117260
#	134033
#	149768
#
# Disc length: 2272 seconds
#
# Revision: 0
# Processed by: cddbd v1.4PL0 Copyright (c) Steve Scherf et al.
# Submitted via: Feurio! 1.65 - http://www.feurio.com
#
DISCID=8d08de0a
DTITLE=The Legendary Blues Band - Woke Up With The Blues
DYEAR=1989
DGENRE=Blues
TTITLE0=Another Mule
TTITLE1=I Woke Up With The Blues
TTITLE2=Your Daughter Looks Good To Me
TTITLE3=Honey Bee
TTITLE4=I Need You So Bad
TTITLE5=Don't Throw Your Love On Me So Strong
TTITLE6=I'd Like To Have A Girl Like You
TTITLE7=I've Got To Be With You Tonight
TTITLE8=You're Looking Good Again Tonight
TTITLE9=Having A Hard Time
EXTD=ARD Ichiban Records ICH 1039 1989
EXTT0=
EXTT1=
EXTT2=
EXTT3=
EXTT4=
EXTT5=
EXTT6=
EXTT7=
EXTT8=
EXTT9=
PLAYORDER=
